<svg width="79" height="79" viewBox="0 0 79 79" fill="none" xmlns="http://www.w3.org/2000/svg">
<g clip-path="url(#clip0_34_95)">
<path d="M77.0878 56.8359H62.7155V54.2227H69.2483C69.9699 54.2227 70.5549 53.6377 70.5549 52.9161V48.9964H74.4746C75.1962 48.9964 75.7812 48.4114 75.7812 47.6899V32.011C75.7812 31.2894 75.1962 30.7044 74.4746 30.7044H70.5549V26.7847C70.5549 26.0631 69.9699 25.4781 69.2483 25.4781H56.1826V22.865H61.4089C62.1305 22.865 62.7155 22.28 62.7155 21.5584V16.3321C62.7155 15.837 62.4361 15.3841 61.9927 15.1627L59.3795 13.8561C59.1983 13.7655 58.9986 13.719 58.7958 13.719H56.1826V9.79925C56.1826 9.0777 55.5976 8.49268 54.876 8.49268H47.0366C46.3151 8.49268 45.73 9.0777 45.73 9.79925V13.719H43.1169C42.914 13.719 42.7143 13.7655 42.5331 13.8561L39.92 15.1627C39.4766 15.3841 39.1972 15.837 39.1972 16.3321V21.5584C39.1972 22.28 39.7822 22.865 40.5037 22.865H45.73V25.4781H36.584C36.1725 25.4781 35.7853 25.6721 35.539 26.0006L31.6193 31.2269C31.4496 31.4534 31.3577 31.7284 31.3577 32.011V34.6241H26.1315V22.865H28.7446V20.2518H15.6789V22.865H18.292V29.3978H14.3723C14.0259 29.3978 13.6935 29.5356 13.4485 29.7806L10.8354 32.3938C10.5904 32.6388 10.4526 32.9711 10.4526 33.3176V35.9307H2.61315V48.9964H5.22629V43.7701H10.4526V46.3833C10.4526 46.7297 10.5904 47.0621 10.8354 47.3071L13.4485 49.9202C13.6935 50.1652 14.0259 50.303 14.3723 50.303H18.292V56.8359H1.30657C0.585023 56.8359 0 57.4209 0 58.1424V68.595C0 69.3166 0.585023 69.9016 1.30657 69.9016H77.0878C77.8093 69.9016 78.3944 69.3166 78.3944 68.595V58.1424C78.3944 57.4209 77.8093 56.8359 77.0878 56.8359ZM60.1023 56.8359H57.4892V54.2227H60.1023V56.8359ZM47.0366 56.8359V54.2227H54.876V56.8359H47.0366ZM26.1315 56.8359V45.0767H31.3577V47.6899C31.3577 47.9725 31.4496 48.2474 31.6193 48.4739L35.539 53.7002C35.7853 54.0288 36.1725 54.2227 36.584 54.2227H39.1972V56.8359H26.1315ZM41.8103 54.2227H44.4235V56.8359H41.8103V54.2227ZM73.1681 33.3176V46.3833H70.5549V33.3176H73.1681ZM48.3432 11.1058H53.5695V13.719H48.3432V11.1058ZM41.8103 17.1398L43.425 16.3321H58.4876L60.1023 17.1398V20.2518H41.8103V17.1398ZM48.3432 22.865H53.5695V25.4781H48.3432V22.865ZM33.9709 32.4461L37.2373 28.0913H67.9418V51.6096H37.2373L33.9709 47.2548V32.4461ZM31.3577 37.2373V42.4636H26.1315V37.2373H31.3577ZM20.9052 22.865H23.5183V29.3978H20.9052V22.865ZM5.22629 41.157V38.5438H10.4526V41.157H5.22629ZM13.0657 45.8423V33.8586L14.9133 32.011H23.5183V47.6899H14.9133L13.0657 45.8423ZM20.9052 50.303H23.5183V56.8359H20.9052V50.303ZM75.7812 67.2884H2.61315V59.449H75.7812V67.2884Z" fill="black"/>
<path d="M39.1971 30.7045H62.7155V33.3176H39.1971V30.7045Z" fill="black"/>
<path d="M39.1971 35.9308H62.7155V38.5439H39.1971V35.9308Z" fill="black"/>
<path d="M39.1971 41.157H62.7155V43.7701H39.1971V41.157Z" fill="black"/>
<path d="M39.1971 46.3833H62.7155V48.9964H39.1971V46.3833Z" fill="black"/>
<path d="M7.83948 62.0623H13.0658V64.6754H7.83948V62.0623Z" fill="black"/>
<path d="M16.9855 62.0623H19.5986V64.6754H16.9855V62.0623Z" fill="black"/>
<path d="M67.9418 62.0623H70.5549V64.6754H67.9418V62.0623Z" fill="black"/>
<path d="M18.292 34.6241H20.9051V37.2373H18.292V34.6241Z" fill="black"/>
</g>
<defs>
<clipPath id="clip0_34_95">
<rect width="78.3944" height="78.3944" fill="white"/>
</clipPath>
</defs>
</svg>
