<svg width="81" height="75" viewBox="0 0 81 75" fill="none" xmlns="http://www.w3.org/2000/svg">
<g clip-path="url(#clip0_40_126)">
<path d="M1.59971 31.562H8.77727C9.2018 33.0868 9.81333 34.5537 10.5997 35.9285L5.51952 40.9867C5.27694 41.2284 5.14048 41.5561 5.14048 41.8984C5.14048 42.2407 5.27694 42.5684 5.51952 42.8101L11.0081 48.2786C11.5135 48.781 12.3322 48.781 12.8376 48.2786L17.9183 43.2173C19.2985 44.0001 20.7697 44.6097 22.3005 45.0321V52.1815C22.3005 52.8933 22.8797 53.4702 23.5943 53.4702H31.3571C32.0718 53.4702 32.6509 52.8933 32.6509 52.1815V45.0321C34.1818 44.6097 35.653 44.0001 37.0332 43.2173L42.1139 48.2786C42.6274 48.7618 43.4304 48.7618 43.9434 48.2786L49.433 42.8101C49.6755 42.5684 49.812 42.2407 49.812 41.8984C49.812 41.5561 49.6755 41.2284 49.433 40.9867L44.3518 35.9285C45.1381 34.5537 45.7497 33.0868 46.1742 31.562H53.3518C54.0664 31.562 54.6456 30.9851 54.6456 30.2733V22.5409C54.6456 21.8296 54.0664 21.2522 53.3518 21.2522H46.1742C45.7497 19.7279 45.1381 18.261 44.3518 16.8862L49.4319 11.828C49.6745 11.5863 49.811 11.2586 49.811 10.9163C49.811 10.574 49.6745 10.2463 49.4319 10.0046L43.9434 4.53612C43.438 4.03322 42.6193 4.03322 42.1139 4.53612L37.0332 9.59737C35.653 8.81507 34.1813 8.20545 32.6509 7.78259V0.632713C32.6509 -0.0785993 32.0718 -0.656006 31.3571 -0.656006H23.5943C22.8797 -0.656006 22.3005 -0.0785993 22.3005 0.632713V7.78259C20.7702 8.20545 19.2985 8.81507 17.9183 9.59737L12.8376 4.53612C12.3241 4.05285 11.521 4.05285 11.0081 4.53612L5.51851 10.0046C5.27592 10.2463 5.13947 10.574 5.13947 10.9163C5.13947 11.2586 5.27592 11.5863 5.51851 11.828L10.5997 16.8862C9.81333 18.261 9.2018 19.7279 8.77727 21.2522H1.59971C0.885086 21.2522 0.305908 21.8296 0.305908 22.5409V30.2733C0.305908 30.9851 0.885086 31.562 1.59971 31.562ZM2.89351 23.8297H9.78957C10.3976 23.8297 10.9237 23.4083 11.0536 22.8168C11.4781 20.8867 12.2458 19.0473 13.3202 17.3861C13.6482 16.8766 13.5755 16.2076 13.1454 15.7792L8.26279 10.9158L11.9228 7.26962L16.8044 12.133C17.2345 12.5624 17.9067 12.6349 18.4191 12.3077C20.0874 11.238 21.9336 10.4733 23.8713 10.0499C24.4646 9.92005 24.8881 9.396 24.8881 8.79041V1.92143H30.0633V8.79041C30.0633 9.396 30.4869 9.92005 31.0802 10.0499C33.0179 10.4733 34.864 11.238 36.5323 12.3077C37.0448 12.6349 37.717 12.5624 38.1471 12.133L43.0286 7.26962L46.6877 10.9158L41.8061 15.7777C41.375 16.2066 41.3027 16.8761 41.6312 17.3861C42.7057 19.0483 43.4724 20.8872 43.8964 22.8178C44.0268 23.4093 44.5529 23.8312 45.1604 23.8312H52.058V28.986H45.1604C44.5529 28.986 44.0268 29.4074 43.8964 29.9989C43.4724 31.929 42.7052 33.7679 41.6312 35.4281C41.3032 35.9381 41.376 36.6071 41.8061 37.0355L46.6887 41.8979L43.0286 45.5451L38.1471 40.6812C37.717 40.2523 37.0448 40.1798 36.5323 40.507C34.8651 41.5772 33.0194 42.3419 31.0817 42.7648C30.4874 42.8936 30.0633 43.4182 30.0633 44.0238V50.8928H24.8881V44.0238C24.8881 43.4182 24.4641 42.8936 23.8698 42.7648C21.9321 42.3419 20.0864 41.5772 18.4191 40.507C17.9067 40.1798 17.2345 40.2523 16.8044 40.6812L11.9228 45.5451L8.2638 41.8989L13.1454 37.0365C13.5765 36.6081 13.6487 35.9386 13.3202 35.4281C12.2458 33.7664 11.4781 31.9269 11.0536 29.9964C10.9232 29.4049 10.3976 28.9845 9.78957 28.9845H2.89351V23.8297Z" fill="black"/>
<path d="M27.4758 36.7168C33.1923 36.7168 37.8262 32.1016 37.8262 26.407C37.8262 20.713 33.1923 16.0973 27.4758 16.0973C21.7593 16.0973 17.1254 20.713 17.1254 26.407C17.1314 32.098 21.7623 36.7108 27.4758 36.7168ZM27.4758 18.6747C31.7625 18.6747 35.2386 22.1372 35.2386 26.407C35.2386 30.6774 31.7625 34.1394 27.4758 34.1394C23.189 34.1394 19.713 30.6774 19.713 26.407C19.7175 22.1382 23.1901 18.6793 27.4758 18.6747Z" fill="black"/>
<path d="M27.4757 40.583C35.3356 40.583 41.7075 34.2366 41.7075 26.4071C41.7075 18.5781 35.3356 12.2312 27.4757 12.2312C19.6159 12.2312 13.2439 18.5781 13.2439 26.4071C13.2535 34.2326 19.6194 40.574 27.4757 40.583ZM27.4757 14.8086C33.9068 14.8086 39.1199 20.0013 39.1199 26.4071C39.1199 32.813 33.9068 38.0056 27.4757 38.0056C21.0446 38.0056 15.8315 32.813 15.8315 26.4071C15.8386 20.0048 21.0476 14.8157 27.4757 14.8086Z" fill="black"/>
<path d="M74.0526 58.625V48.3153C74.0526 47.604 73.4734 47.0266 72.7588 47.0266H70.1712V36.7168C70.1712 36.0055 69.592 35.4281 68.8774 35.4281H57.2332C56.5185 35.4281 55.9394 36.0055 55.9394 36.7168V47.0266H49.4704C48.7557 47.0266 48.1766 47.604 48.1766 48.3153V58.625H6.77491C3.20382 58.6296 0.310457 61.5116 0.305908 65.0686V67.6461C0.310457 71.2036 3.20382 74.0856 6.77491 74.0897H74.0526C77.6237 74.0856 80.517 71.2036 80.5216 67.6461V65.0686C80.517 61.5116 77.6237 58.6296 74.0526 58.625ZM71.465 58.625H62.4084V49.604H71.465V58.625ZM58.527 38.0055H67.5836V47.0266H58.527V38.0055ZM50.7642 49.604H59.8208V58.625H50.7642V49.604ZM77.934 67.6461C77.934 69.7815 76.1959 71.5122 74.0526 71.5122H6.77491C4.63155 71.5122 2.89351 69.7815 2.89351 67.6461V65.0686C2.89351 62.9337 4.63155 61.2025 6.77491 61.2025H74.0526C76.1959 61.2025 77.934 62.9337 77.934 65.0686V67.6461Z" fill="black"/>
<path d="M40.4138 62.4912C38.2704 62.4912 36.5323 64.2224 36.5323 66.3574C36.5323 68.4928 38.2704 70.2235 40.4138 70.2235C42.5571 70.2235 44.2952 68.4928 44.2952 66.3574C44.2952 64.2224 42.5571 62.4912 40.4138 62.4912ZM40.4138 67.6461C39.6991 67.6461 39.12 67.0692 39.12 66.3574C39.12 65.6461 39.6991 65.0686 40.4138 65.0686C41.1284 65.0686 41.7076 65.6461 41.7076 66.3574C41.7076 67.0692 41.1284 67.6461 40.4138 67.6461Z" fill="black"/>
<path d="M27.4756 62.4912C25.3323 62.4912 23.5942 64.2224 23.5942 66.3574C23.5942 68.4928 25.3323 70.2235 27.4756 70.2235C29.619 70.2235 31.357 68.4928 31.357 66.3574C31.357 64.2224 29.619 62.4912 27.4756 62.4912ZM27.4756 67.6461C26.761 67.6461 26.1818 67.0692 26.1818 66.3574C26.1818 65.6461 26.761 65.0686 27.4756 65.0686C28.1903 65.0686 28.7694 65.6461 28.7694 66.3574C28.7694 67.0692 28.1903 67.6461 27.4756 67.6461Z" fill="black"/>
<path d="M53.3517 62.4912C51.2084 62.4912 49.4703 64.2224 49.4703 66.3574C49.4703 68.4928 51.2084 70.2235 53.3517 70.2235C55.4951 70.2235 57.2331 68.4928 57.2331 66.3574C57.2331 64.2224 55.4951 62.4912 53.3517 62.4912ZM53.3517 67.6461C52.6371 67.6461 52.0579 67.0692 52.0579 66.3574C52.0579 65.6461 52.6371 65.0686 53.3517 65.0686C54.0664 65.0686 54.6455 65.6461 54.6455 66.3574C54.6455 67.0692 54.0664 67.6461 53.3517 67.6461Z" fill="black"/>
<path d="M14.5377 62.4912C12.3943 62.4912 10.6562 64.2224 10.6562 66.3574C10.6562 68.4928 12.3943 70.2235 14.5377 70.2235C16.681 70.2235 18.4191 68.4928 18.4191 66.3574C18.4191 64.2224 16.681 62.4912 14.5377 62.4912ZM14.5377 67.6461C13.823 67.6461 13.2439 67.0692 13.2439 66.3574C13.2439 65.6461 13.823 65.0686 14.5377 65.0686C15.2523 65.0686 15.8315 65.6461 15.8315 66.3574C15.8315 67.0692 15.2523 67.6461 14.5377 67.6461Z" fill="black"/>
<path d="M66.2897 62.4912C64.1464 62.4912 62.4083 64.2224 62.4083 66.3574C62.4083 68.4928 64.1464 70.2235 66.2897 70.2235C68.4331 70.2235 70.1711 68.4928 70.1711 66.3574C70.1711 64.2224 68.4331 62.4912 66.2897 62.4912ZM66.2897 67.6461C65.5751 67.6461 64.9959 67.0692 64.9959 66.3574C64.9959 65.6461 65.5751 65.0686 66.2897 65.0686C67.0044 65.0686 67.5835 65.6461 67.5835 66.3574C67.5835 67.0692 67.0044 67.6461 66.2897 67.6461Z" fill="black"/>
</g>
<defs>
<clipPath id="clip0_40_126">
<rect width="81" height="75" fill="white"/>
</clipPath>
</defs>
</svg>
