<svg width="75" height="75" viewBox="0 0 75 75" fill="none" xmlns="http://www.w3.org/2000/svg">
<path d="M35.3622 3.07617L33.1327 8.1665C31.9808 8.23652 30.8325 8.38213 29.6952 8.60156L26.2847 4.19766L22.6088 5.44746L22.5905 11.0505C21.0334 11.8509 19.5412 12.8186 18.1315 13.948L12.9365 11.6089L10.2768 14.4379L12.9363 19.4824C12.0791 20.705 11.336 21.9832 10.7071 23.3048L5.00332 23.4604L3.84521 27.1635L8.45039 30.5558C8.22993 31.9298 8.12227 33.3182 8.11611 34.7077L3.00293 37.2986L3.53848 41.1438L9.15073 42.2424C9.4853 43.4117 9.89883 44.5607 10.3958 45.6848L6.69727 50.2764L8.76167 53.5629L14.5112 52.2171C14.873 52.6412 15.249 53.0605 15.6417 53.4667C16.4684 54.3214 17.3358 55.1082 18.2375 55.8287L17.1205 61.5875L20.4806 63.5284L24.8704 59.706C26.1311 60.2131 27.4244 60.6186 28.7386 60.9236L30.1715 66.5495L34.0395 66.8654L36.3649 61.5598C37.9718 61.4631 39.5735 61.2229 41.1485 60.8364L44.8428 65.1167L48.4453 63.6747L48.3398 61.5048L39.9308 55.1284C37.4827 55.7473 34.9441 55.9129 32.4508 55.6317C27.7994 55.1073 23.3292 53.0067 19.8212 49.3789C11.803 41.0858 12.0322 27.894 20.3249 19.876C24.3415 15.9923 29.508 14.0221 34.6803 13.9663C40.1867 13.9068 45.698 16.0165 49.8324 20.2925C56.5611 27.2522 57.4783 37.7219 52.6979 45.6482L57.381 49.2004C57.9665 48.2805 58.4934 47.3328 58.9557 46.3623L64.6181 46.2066L65.7762 42.5035L61.2034 39.1343C61.425 37.749 61.5347 36.346 61.5374 34.9458L66.6186 32.364L66.0832 28.5188L60.4758 27.4201C60.0076 25.8098 59.3853 24.2323 58.6081 22.7143L61.9494 18.0863L59.7155 14.9139L54.2136 16.5114C54.1444 16.4382 54.0773 16.3639 54.0073 16.2917C53.1287 15.3828 52.2012 14.55 51.2333 13.7921L52.2863 8.35386L48.9258 6.41309L44.751 10.048C43.3995 9.50405 42.0114 9.08071 40.6036 8.76621L39.235 3.39199L35.3622 3.07617ZM26.8433 25.5615C25.328 25.5788 23.8261 25.9509 22.4487 26.6279L29.0728 31.6544C31.0761 33.1743 31.6443 36.0628 30.1069 38.0905C28.5691 40.1193 25.6163 40.4243 23.584 38.8827L16.9646 33.8609C16.2869 37.4927 17.5704 41.3408 20.7138 43.7257C23.5329 45.864 27.1509 46.2643 30.2675 45.1449L30.9677 44.8929L31.558 45.3416L51.3612 60.3656L51.9516 60.8142L51.9012 61.5558C51.6614 64.859 53.013 68.237 55.8334 70.3767C58.977 72.7614 63.0324 72.9592 66.348 71.3288L59.729 66.3073C57.6967 64.7654 57.1975 61.8387 58.7358 59.8116C60.2739 57.7843 63.209 57.555 65.2129 59.0745L71.8323 64.0964C72.5084 60.466 71.2302 56.6159 68.0877 54.2316C65.2586 52.0844 61.6692 51.659 58.5709 52.7619L57.8751 53.0092L57.2848 52.5605L37.4815 37.5368L36.8912 37.0881L36.9416 36.3513C37.1687 33.0719 35.7917 29.7311 32.9635 27.5849C31.126 26.191 28.9759 25.5374 26.8434 25.5617L26.8433 25.5615ZM33.2246 38.7817L57.2297 56.9962L55.5771 59.1797L31.5674 40.9607L33.2246 38.7817Z" fill="black"/>
</svg>
