<svg width="76" height="67" viewBox="0 0 76 67" fill="none" xmlns="http://www.w3.org/2000/svg">
<path d="M73.4736 55.1401H62.7588V45.333C62.7588 44.3656 61.9023 43.5817 60.8454 43.5817H52.4264C51.3695 43.5817 50.5131 44.3656 50.5131 45.333V55.1401H33.2926V28.8157C33.467 28.6747 33.6378 28.5302 33.8033 28.3806L51.2164 22.5091L51.6639 30.0171C51.7195 30.9459 52.5584 31.6731 53.5745 31.6731H54.7226V37.6273C54.7226 38.5947 55.579 39.3785 56.6359 39.3785C57.6929 39.3785 58.5493 38.5947 58.5493 37.6273V31.6731H59.9524C60.9776 31.6731 61.8206 30.9336 61.864 29.9962L62.4311 17.7616C63.3994 16.8927 64.1992 15.8626 64.7846 14.7019C66.0509 12.1902 66.1732 9.37748 65.1285 6.78173C64.0835 4.18599 61.997 2.11808 59.2531 0.958785C56.5095 -0.200508 53.4362 -0.312256 50.6001 0.643987L25.9915 8.94188C25.6851 8.9212 25.377 8.90703 25.065 8.90703C18.2073 8.90703 12.6282 14.0135 12.6282 20.2902C12.6282 22.1299 13.1105 23.8677 13.9611 25.4073L4.67958 55.1401H1.91336C0.856416 55.1401 0 55.9239 0 56.8913V64.597C0 65.5644 0.856416 66.3483 1.91336 66.3483H73.4736C74.5305 66.3483 75.387 65.5644 75.387 64.597V56.8913C75.387 55.9239 74.5305 55.1401 73.4736 55.1401ZM54.3398 47.0842H58.9318V55.1401H54.3398V47.0842ZM58.1185 28.1703H55.3866L54.9736 21.2422L58.4229 20.0792C58.4472 20.0711 58.4706 20.0613 58.4949 20.0532L58.1185 28.1703ZM51.9231 3.93043C53.7994 3.29758 55.8331 3.37123 57.6494 4.13883C59.4653 4.90596 60.8462 6.27457 61.5376 7.99237C62.2293 9.71017 62.1483 11.5715 61.3099 13.2336C60.4718 14.8959 58.9765 16.1597 57.0997 16.7925L36.9703 23.5799C37.3148 22.5377 37.5021 21.4334 37.5021 20.2897C37.5021 16.2786 35.2217 12.748 31.7872 10.7201L51.9231 3.93043ZM25.0653 12.4091C29.8129 12.4091 33.6754 15.9443 33.6754 20.2897C33.6754 24.6351 29.8129 28.1703 25.0653 28.1703C20.3177 28.1703 16.4552 24.6351 16.4552 20.2897C16.4552 15.9443 20.3177 12.4091 25.0653 12.4091ZM16.8692 28.8408C19.0597 30.6018 21.9275 31.6731 25.0653 31.6731C26.6144 31.6731 28.097 31.4103 29.4661 30.9345V55.1401H8.6596L16.8692 28.8408ZM71.5602 62.8455H3.82671V58.6426H71.5602V62.8455Z" fill="black"/>
</svg>
