<svg width="95" height="70" viewBox="0 0 95 70" fill="none" xmlns="http://www.w3.org/2000/svg">
<path d="M91.5325 8.34058H2.63348C1.46918 8.34058 0.525391 7.64542 0.525391 6.78819V2.89296C0.525391 2.03573 1.46918 1.34058 2.63348 1.34058H91.5323C92.6964 1.34058 93.6404 2.03573 93.6404 2.89296V6.78819C93.6406 7.64557 92.6966 8.34058 91.5325 8.34058ZM4.74157 5.23581H89.4242V4.44534H4.74157V5.23581Z" fill="black"/>
<path d="M42.8721 57H8.12768C6.95256 57 6 56.0564 6 54.8929V9.10714C6 7.94358 6.95256 7 8.12768 7H42.8723C44.0474 7 45 7.94358 45 9.10714V54.8929C44.9998 56.0564 44.0472 57 42.8721 57ZM10.2554 52.7857H40.7446V11.2143H10.2554V52.7857Z" fill="black"/>
<path d="M89.462 69H85.538C84.6887 69 84 68.0529 84 66.885V9.11499C84 7.94709 84.6887 7 85.538 7H89.462C90.3113 7 91 7.94709 91 9.11499V66.885C91 68.0529 90.3113 69 89.462 69ZM87.076 64.77H87.924V11.23H87.076V64.77Z" fill="black"/>
<path d="M11.4826 69H7.51722C6.67926 69 6 68.087 6 66.9611V55.0389C6 53.913 6.67926 53 7.51722 53H11.4828C12.3207 53 13 53.913 13 55.0389V66.9611C12.9998 68.087 12.3206 69 11.4826 69ZM9.03444 64.9222H9.96556V57.0778H9.03444V64.9222Z" fill="black"/>
<path d="M29.5216 19.6437H21.85C20.6857 19.6437 19.7419 18.7026 19.7419 17.5421C19.7419 16.3816 20.6857 15.4406 21.85 15.4406H29.5216C30.6859 15.4406 31.6297 16.3816 31.6297 17.5421C31.6297 18.7026 30.6859 19.6437 29.5216 19.6437Z" fill="black"/>
<path d="M29.1747 33.1537H21.5034C20.3391 33.1537 19.3953 32.2126 19.3953 31.0521C19.3953 29.8916 20.3391 28.9506 21.5034 28.9506H29.1749C30.3392 28.9506 31.283 29.8916 31.283 31.0521C31.283 32.2126 30.339 33.1537 29.1747 33.1537Z" fill="black"/>
<path d="M29.3541 48.8555H21.6826C20.5183 48.8555 19.5745 47.9144 19.5745 46.7539C19.5745 45.5934 20.5183 44.6523 21.6826 44.6523H29.3541C30.5184 44.6523 31.4622 45.5934 31.4622 46.7539C31.4622 47.9144 30.5184 48.8555 29.3541 48.8555Z" fill="black"/>
<path d="M42.7306 25.9485H8.30609C7.14179 25.9485 6.198 25.0074 6.198 23.8469V9.43628C6.198 8.2758 7.14179 7.33472 8.30609 7.33472H42.7308C43.8951 7.33472 44.8389 8.2758 44.8389 9.43628V23.8469C44.8387 25.0076 43.8949 25.9485 42.7306 25.9485ZM10.4142 21.7454H40.6227V11.5378H10.4142V21.7454Z" fill="black"/>
<path d="M42.7306 40.359H8.30609C7.14179 40.359 6.198 39.4179 6.198 38.2574V23.8468C6.198 22.6863 7.14179 21.7452 8.30609 21.7452H42.7308C43.8951 21.7452 44.8389 22.6863 44.8389 23.8468V38.2574C44.8387 39.4181 43.8949 40.359 42.7306 40.359ZM10.4142 36.1559H40.6227V25.9484H10.4142V36.1559Z" fill="black"/>
</svg>
