<svg width="31" height="29" viewBox="0 0 31 29" fill="none" xmlns="http://www.w3.org/2000/svg">
<path d="M4.02954 18.3386C4.02954 18.3386 10.1131 -2.36977 21.1536 0.803327C32.1941 3.97642 27.8313 18.4518 27.8313 18.4518L24.5304 12.8233C24.5304 12.8233 22.8003 15.5696 22.714 23.7087L4.02954 18.3386Z" fill="#FF170A"/>
<path d="M24.0184 25.4067C24.157 25.6321 24.2479 25.8836 24.2853 26.1456C24.3228 26.4076 24.3061 26.6745 24.2362 26.9298C24.1278 27.3998 23.8374 27.8077 23.4288 28.064C23.0202 28.3204 22.5266 28.4043 22.0562 28.2973C21.8117 28.2291 21.5858 28.1065 21.3952 27.9388C21.2047 27.7711 21.0544 27.5626 20.9556 27.3287C20.7545 27.4845 20.5201 27.5916 20.2707 27.6417C20.0214 27.6919 19.7638 27.6838 19.5181 27.6179C19.2724 27.5521 19.0452 27.4304 18.8543 27.2623C18.6635 27.0941 18.514 26.8842 18.4177 26.6487C18.2166 26.8044 17.9822 26.9114 17.7329 26.9615C17.4836 27.0116 17.2261 27.0035 16.9804 26.9377C16.7348 26.8718 16.5077 26.7501 16.3169 26.5821C16.126 26.414 15.9766 26.2041 15.8803 25.9688C15.6792 26.1245 15.4448 26.2316 15.1955 26.2818C14.9461 26.332 14.6885 26.3239 14.4429 26.2582C14.1972 26.1924 13.97 26.0707 13.7791 25.9026C13.5882 25.7346 13.4387 25.5246 13.3423 25.2893C13.1412 25.4449 12.9069 25.5519 12.6576 25.602C12.4082 25.6522 12.1507 25.644 11.9051 25.5782C11.6595 25.5123 11.4324 25.3906 11.2415 25.2226C11.0507 25.0545 10.9013 24.8446 10.8049 24.6093C10.6038 24.765 10.3694 24.8721 10.12 24.9223C9.87066 24.9725 9.61307 24.9643 9.36737 24.8985C9.12168 24.8326 8.89452 24.7109 8.70364 24.5428C8.51276 24.3747 8.36333 24.1647 8.267 23.9293C8.06587 24.085 7.83148 24.1921 7.58211 24.2423C7.33275 24.2925 7.07516 24.2843 6.82946 24.2185C6.58377 24.1527 6.35661 24.0309 6.16573 23.8628C5.97485 23.6947 5.82542 23.4847 5.72909 23.2493C5.52797 23.4049 5.29361 23.512 5.0443 23.5621C4.79499 23.6122 4.53747 23.604 4.29184 23.5382C4.04621 23.4724 3.81911 23.3507 3.62826 23.1826C3.43742 23.0146 3.28799 22.8047 3.19165 22.5693C2.98919 22.7224 2.75482 22.8279 2.50597 22.8778C2.25712 22.9278 2.0002 22.921 1.75435 22.8579C1.29339 22.7154 0.907777 22.3959 0.682089 21.9694C0.456401 21.543 0.409066 21.0444 0.550466 20.5831C0.617601 20.3272 0.736574 20.0877 0.900016 19.8795C1.06346 19.6714 1.26789 19.499 1.50065 19.3731C1.36208 19.1477 1.27125 18.8963 1.23378 18.6344C1.19631 18.3725 1.21299 18.1057 1.28279 17.8505C1.39111 17.3804 1.68144 16.9724 2.0901 16.7161C2.49876 16.4597 2.99241 16.3759 3.46279 16.483C3.70725 16.5513 3.93315 16.6739 4.1237 16.8416C4.31425 17.0093 4.46454 17.2177 4.5634 17.4515C4.76453 17.2958 4.99892 17.1887 5.24829 17.1385C5.49765 17.0884 5.75524 17.0965 6.00094 17.1623C6.24663 17.2282 6.47379 17.3499 6.66467 17.518C6.85555 17.6861 7.00498 17.8961 7.10131 18.1315C7.30234 17.9759 7.53661 17.8687 7.78585 17.8185C8.03509 17.7683 8.29256 17.7764 8.53817 17.8421C8.78379 17.9077 9.01091 18.0293 9.20182 18.1972C9.39273 18.3651 9.54226 18.5749 9.63875 18.8101C9.8398 18.6545 10.0741 18.5475 10.3233 18.4974C10.5725 18.4473 10.8299 18.4554 11.0755 18.5211C11.321 18.5868 11.5481 18.7084 11.7389 18.8763C11.9298 19.0442 12.0793 19.2539 12.1757 19.4891C12.3768 19.3335 12.6112 19.2265 12.8605 19.1763C13.1098 19.1262 13.3673 19.1344 13.613 19.2002C13.8586 19.266 14.0857 19.3877 14.2765 19.5558C14.4674 19.7239 14.6168 19.9338 14.7132 20.1691C14.9143 20.0134 15.1487 19.9063 15.398 19.8561C15.6474 19.8059 15.905 19.8141 16.1507 19.8799C16.3964 19.9457 16.6235 20.0675 16.8144 20.2356C17.0053 20.4037 17.1547 20.6137 17.2511 20.8491C17.4522 20.6934 17.6866 20.5862 17.936 20.5361C18.1853 20.4859 18.4429 20.4941 18.6886 20.5599C18.9343 20.6257 19.1615 20.7474 19.3523 20.9156C19.5432 21.0837 19.6927 21.2937 19.789 21.5291C19.9901 21.3734 20.2245 21.2664 20.4738 21.2163C20.7231 21.1662 20.9806 21.1743 21.2262 21.2402C21.4719 21.306 21.699 21.4277 21.8898 21.5958C22.0806 21.7638 22.2301 21.9737 22.3264 22.2091C22.5289 22.0561 22.7633 21.9507 23.0121 21.9008C23.261 21.8508 23.5179 21.8575 23.7637 21.9205C24.2248 22.063 24.6105 22.3826 24.8362 22.8091C25.0619 23.2357 25.1091 23.7344 24.9676 24.1957C24.9007 24.4518 24.7819 24.6914 24.6186 24.8997C24.4554 25.108 24.251 25.2805 24.0184 25.4067Z" fill="#E0F2F3"/>
<path d="M21.1537 0.803747C19.8626 0.418845 18.4946 0.37015 17.1794 0.66228L24.5305 12.8237L27.8314 18.4522C27.8314 18.4522 32.1947 3.97543 21.1537 0.803747Z" fill="#FF170A"/>
<path d="M27.8313 20.3384C28.873 20.3384 29.7175 19.4939 29.7175 18.4521C29.7175 17.4104 28.873 16.5659 27.8313 16.5659C26.7896 16.5659 25.9451 17.4104 25.9451 18.4521C25.9451 19.4939 26.7896 20.3384 27.8313 20.3384Z" fill="#E0F2F3"/>
<path d="M17.9386 17.9077L14.2944 16.9311C14.1736 16.8987 14.0449 16.9157 13.9366 16.9782C13.8282 17.0407 13.7492 17.1437 13.7168 17.2645C13.6844 17.3853 13.7013 17.5141 13.7638 17.6224C13.8264 17.7307 13.9294 17.8098 14.0502 17.8422L17.6943 18.8183C17.7341 18.8293 17.7752 18.8348 17.8165 18.8348C17.9309 18.8349 18.0415 18.7933 18.1275 18.7179C18.2136 18.6424 18.2693 18.5383 18.2842 18.4248C18.2992 18.3114 18.2723 18.1964 18.2087 18.1012C18.1452 18.0061 18.0492 17.9373 17.9386 17.9077Z" fill="black"/>
<path d="M12.4724 16.443L11.5628 16.1993C11.5024 16.1813 11.439 16.1756 11.3764 16.1826C11.3138 16.1895 11.2532 16.2089 11.1982 16.2397C11.1432 16.2704 11.095 16.3118 11.0563 16.3616C11.0176 16.4113 10.9892 16.4682 10.9729 16.5291C10.9566 16.5899 10.9526 16.6534 10.9612 16.7158C10.9699 16.7782 10.9909 16.8383 11.0231 16.8924C11.0553 16.9465 11.0981 16.9937 11.1488 17.031C11.1995 17.0684 11.2572 17.0952 11.3185 17.1098L12.23 17.3541C12.3506 17.3858 12.4788 17.3684 12.5867 17.3058C12.6945 17.2431 12.7731 17.1403 12.8053 17.0199C12.8376 16.8995 12.8208 16.7711 12.7586 16.663C12.6965 16.5549 12.5941 16.4758 12.4738 16.443H12.4724Z" fill="black"/>
<path d="M11.7824 14.8017C11.8968 14.8017 12.0074 14.7602 12.0934 14.6847C12.1795 14.6093 12.2352 14.5052 12.2501 14.3917C12.2651 14.2783 12.2382 14.1632 12.1747 14.0681C12.1111 13.973 12.0151 13.9042 11.9045 13.8746L8.26174 12.8985C8.20136 12.8805 8.13799 12.8748 8.07538 12.8818C8.01277 12.8887 7.95218 12.9081 7.89719 12.9389C7.84221 12.9696 7.79394 13.0111 7.75524 13.0608C7.71653 13.1105 7.68819 13.1674 7.67186 13.2283C7.65554 13.2891 7.65158 13.3526 7.6602 13.415C7.66883 13.4774 7.68987 13.5375 7.72209 13.5916C7.75431 13.6458 7.79704 13.6929 7.84778 13.7302C7.89851 13.7676 7.95622 13.7944 8.01748 13.809L11.6617 14.7856C11.701 14.7961 11.7416 14.8015 11.7824 14.8017Z" fill="black"/>
<path d="M14.5157 15.534C14.6302 15.534 14.7407 15.4925 14.8268 15.417C14.9128 15.3416 14.9685 15.2375 14.9835 15.124C14.9984 15.0106 14.9716 14.8955 14.908 14.8004C14.8444 14.7053 14.7484 14.6365 14.6379 14.6069L13.7263 14.3626C13.6057 14.331 13.4775 14.3483 13.3697 14.411C13.2619 14.4736 13.1833 14.5764 13.151 14.6968C13.1188 14.8173 13.1356 14.9456 13.1977 15.0537C13.2598 15.1618 13.3623 15.2409 13.4825 15.2737L14.3936 15.5175C14.4334 15.5284 14.4745 15.534 14.5157 15.534Z" fill="black"/>
<path d="M28.791 16.3028C29.5148 12.0786 30.008 2.85735 21.2843 0.350092C11.9178 -2.3406 6.05916 11.2001 4.21161 16.3146C4.02007 16.1843 3.80809 16.0869 3.58444 16.0265C2.99324 15.8881 2.37132 15.9895 1.85465 16.3084C1.33798 16.6273 0.968595 17.1378 0.827256 17.7283C0.695413 18.218 0.719813 18.7367 0.897047 19.2118C0.506248 19.5348 0.225999 19.9716 0.0954025 20.4615C-0.0778467 21.0436 -0.0134033 21.6706 0.274625 22.2053C0.562653 22.74 1.0508 23.1388 1.6322 23.3144C2.09394 23.4363 2.58332 23.3985 3.02093 23.2073C3.30326 23.5928 3.70872 23.8703 4.17022 23.9939C4.63173 24.1176 5.12162 24.08 5.55884 23.8873C5.84103 24.2728 6.24641 24.5503 6.70786 24.674C7.16931 24.7977 7.65915 24.76 8.09628 24.5673C8.37844 24.953 8.7839 25.2306 9.24547 25.3543C9.70704 25.478 10.197 25.4402 10.6342 25.2473C10.9163 25.6329 11.3216 25.9105 11.7831 26.0342C12.2446 26.1579 12.7345 26.1202 13.1716 25.9273C13.4536 26.313 13.8588 26.5909 14.3203 26.715C14.7817 26.8391 15.2717 26.8019 15.7091 26.6096C15.9913 26.995 16.3967 27.2725 16.8581 27.3962C17.3195 27.5198 17.8094 27.4822 18.2465 27.2896C18.5288 27.675 18.9343 27.9525 19.3958 28.0762C19.8573 28.1998 20.3472 28.1622 20.7844 27.9696C21.068 28.3537 21.4729 28.631 21.9336 28.7566C22.1112 28.8034 22.2941 28.8267 22.4778 28.8259C22.99 28.8132 23.4839 28.6328 23.8836 28.3123C24.2834 27.9919 24.567 27.5491 24.6908 27.0519C24.8229 26.5622 24.7985 26.0435 24.621 25.5684C25.0515 25.2114 25.347 24.7179 25.4585 24.1698C25.57 23.6217 25.4908 23.052 25.234 22.5552C25.0974 22.2899 24.907 22.056 24.6748 21.8685C24.4427 21.681 24.174 21.544 23.8858 21.4663C23.6814 21.4133 23.4701 21.3918 23.2591 21.4027C23.486 17.2855 24.1626 14.9391 24.5819 13.8441L26.2611 16.7069C25.8843 17.0467 25.6274 17.4992 25.5288 17.997C25.4302 18.4947 25.4952 19.0109 25.714 19.4687C25.9329 19.9265 26.2938 20.3012 26.7431 20.5371C27.1923 20.7729 27.7058 20.8572 28.2068 20.7773C28.7079 20.6975 29.1697 20.4578 29.5234 20.094C29.8771 19.7302 30.1037 19.2618 30.1694 18.7587C30.2351 18.2555 30.1363 17.7447 29.8879 17.3023C29.6395 16.8598 29.2547 16.5096 28.791 16.3038V16.3028ZM23.642 22.3774C23.8046 22.4221 23.956 22.5002 24.0866 22.6068C24.2173 22.7133 24.3242 22.8459 24.4008 22.9961C24.5777 23.3422 24.6136 23.7435 24.5009 24.1156C24.3881 24.4876 24.1356 24.8015 23.7962 24.9912C23.7393 25.0216 23.6893 25.0634 23.6491 25.1139C23.609 25.1645 23.5797 25.2227 23.563 25.285C23.5463 25.3474 23.5425 25.4124 23.552 25.4763C23.5615 25.5401 23.5839 25.6013 23.618 25.6561C23.722 25.827 23.79 26.0173 23.8179 26.2154C23.8458 26.4135 23.833 26.6152 23.7802 26.8081C23.7042 27.1578 23.4929 27.4631 23.1925 27.6575C22.8921 27.8519 22.527 27.9195 22.1769 27.8455C22.0007 27.7948 21.8382 27.7051 21.7013 27.5832C21.5643 27.4613 21.4565 27.3102 21.3857 27.141C21.357 27.0771 21.3144 27.0203 21.2609 26.9748C21.2075 26.9294 21.1446 26.8964 21.0769 26.8784C21.0091 26.8603 20.9382 26.8576 20.8692 26.8704C20.8003 26.8832 20.7351 26.9112 20.6783 26.9524C20.5342 27.0667 20.3652 27.1457 20.185 27.1831C20.0049 27.2204 19.8185 27.2151 19.6407 27.1674C19.463 27.1198 19.2989 27.0313 19.1615 26.9089C19.0241 26.7864 18.9173 26.6336 18.8496 26.4625C18.8209 26.3985 18.7783 26.3417 18.7249 26.2963C18.6715 26.2508 18.6086 26.2179 18.5409 26.1998C18.4731 26.1817 18.4022 26.179 18.3332 26.1918C18.2643 26.2046 18.199 26.2326 18.1423 26.2739C17.9981 26.3883 17.8292 26.4674 17.6489 26.5047C17.4687 26.5421 17.2822 26.5368 17.1044 26.4892C16.9266 26.4416 16.7624 26.353 16.625 26.2305C16.4876 26.108 16.3808 25.9551 16.3131 25.7839C16.2844 25.7199 16.2418 25.6631 16.1884 25.6177C16.135 25.5723 16.0721 25.5393 16.0044 25.5212C15.9366 25.5032 15.8657 25.5004 15.7967 25.5132C15.7278 25.5261 15.6625 25.5541 15.6058 25.5953C15.4613 25.7103 15.2917 25.7897 15.1109 25.8271C14.93 25.8646 14.7429 25.859 14.5646 25.8109C14.3863 25.7628 14.2218 25.6734 14.0843 25.55C13.9469 25.4267 13.8404 25.2727 13.7733 25.1006C13.7446 25.0366 13.702 24.9799 13.6486 24.9344C13.5952 24.889 13.5323 24.856 13.4646 24.8379C13.3968 24.8199 13.3259 24.8171 13.2569 24.83C13.188 24.8428 13.1228 24.8708 13.066 24.912C12.9218 25.0263 12.7528 25.1053 12.5726 25.1426C12.3924 25.1799 12.206 25.1745 12.0283 25.1268C11.8505 25.0792 11.6864 24.9906 11.5491 24.8681C11.4117 24.7456 11.305 24.5927 11.2373 24.4216C11.2086 24.3576 11.166 24.3008 11.1126 24.2554C11.0592 24.2099 10.9963 24.177 10.9285 24.1589C10.8608 24.1408 10.7898 24.1381 10.7209 24.1509C10.6519 24.1637 10.5867 24.1918 10.53 24.233C10.3858 24.3472 10.2169 24.4261 10.0368 24.4634C9.85669 24.5007 9.67034 24.4953 9.49268 24.4477C9.31501 24.4001 9.15095 24.3115 9.01361 24.1892C8.87628 24.0668 8.76948 23.914 8.70176 23.743C8.67323 23.6786 8.63063 23.6214 8.5771 23.5756C8.52357 23.5299 8.46047 23.4967 8.39242 23.4785C8.32453 23.4601 8.25336 23.4572 8.18421 23.4701C8.11505 23.483 8.0497 23.5113 7.99301 23.553C7.84884 23.6674 7.67987 23.7465 7.49964 23.7839C7.31941 23.8213 7.13293 23.8159 6.95514 23.7683C6.77734 23.7207 6.61316 23.6321 6.47576 23.5096C6.33835 23.3871 6.23153 23.2342 6.16385 23.063C6.13515 22.999 6.09255 22.9423 6.03913 22.8968C5.98572 22.8514 5.92284 22.8184 5.85508 22.8004C5.78732 22.7823 5.71638 22.7796 5.64743 22.7924C5.57849 22.8052 5.51326 22.8332 5.45652 22.8744C5.31234 22.9887 5.14341 23.0677 4.96324 23.1051C4.78307 23.1424 4.59666 23.1371 4.41893 23.0894C4.24119 23.0418 4.07708 22.9533 3.9397 22.8308C3.80233 22.7084 3.69552 22.5556 3.62782 22.3845C3.59913 22.3205 3.55652 22.2637 3.50311 22.2182C3.44969 22.1728 3.38682 22.1399 3.31906 22.1218C3.25129 22.1037 3.18036 22.101 3.11141 22.1138C3.04246 22.1266 2.97724 22.1546 2.92049 22.1958C2.77467 22.307 2.60573 22.3839 2.42616 22.421C2.24658 22.4581 2.06098 22.4543 1.88307 22.4099C1.54343 22.2989 1.26139 22.0583 1.09835 21.7403C0.935317 21.4224 0.904488 21.0529 1.01258 20.7123C1.06332 20.5188 1.15307 20.3377 1.27633 20.1802C1.39959 20.0226 1.55374 19.8919 1.72934 19.7961C1.78625 19.7657 1.83632 19.7239 1.87644 19.6734C1.91656 19.6228 1.94589 19.5646 1.9626 19.5023C1.9793 19.44 1.98304 19.3749 1.97358 19.311C1.96412 19.2472 1.94166 19.186 1.90759 19.1312C1.80346 18.9605 1.73532 18.7702 1.70735 18.5722C1.67937 18.3742 1.69215 18.1726 1.7449 17.9797C1.82067 17.6299 2.0319 17.3244 2.33237 17.13C2.63284 16.9355 2.99808 16.868 3.34819 16.9422C3.52444 16.9927 3.68707 17.0822 3.82404 17.2041C3.96102 17.326 4.06882 17.4771 4.13946 17.6463C4.16816 17.7103 4.21076 17.767 4.26418 17.8125C4.31759 17.8579 4.38047 17.8909 4.44823 17.909C4.51599 17.927 4.58693 17.9298 4.65588 17.9169C4.72482 17.9041 4.79005 17.8761 4.84679 17.8349C4.99097 17.7206 5.1599 17.6416 5.34007 17.6042C5.52024 17.5669 5.70665 17.5723 5.88438 17.6199C6.06212 17.6675 6.22623 17.756 6.36361 17.8785C6.50098 18.0009 6.60779 18.1537 6.67549 18.3248C6.70418 18.3888 6.74679 18.4456 6.8002 18.4911C6.85362 18.5365 6.91649 18.5695 6.98425 18.5875C7.05202 18.6056 7.12295 18.6083 7.1919 18.5955C7.26085 18.5827 7.32607 18.5547 7.38282 18.5135C7.52702 18.3991 7.69598 18.3202 7.87618 18.2829C8.05638 18.2456 8.2428 18.251 8.42054 18.2986C8.59828 18.3463 8.76239 18.4349 8.89974 18.5574C9.03709 18.6798 9.14386 18.8328 9.21151 19.0039C9.24004 19.0683 9.28264 19.1255 9.33617 19.1712C9.3897 19.217 9.45281 19.2502 9.52085 19.2684C9.58887 19.2866 9.6601 19.2893 9.72929 19.2763C9.79849 19.2633 9.8639 19.235 9.92073 19.1934C10.0649 19.0791 10.2339 19.0002 10.4141 18.9629C10.5943 18.9255 10.7807 18.9309 10.9585 18.9786C11.1362 19.0263 11.3003 19.1149 11.4377 19.2373C11.575 19.3598 11.6818 19.5127 11.7494 19.6839C11.7781 19.7479 11.8207 19.8046 11.8741 19.8501C11.9276 19.8955 11.9904 19.9285 12.0582 19.9465C12.126 19.9646 12.1969 19.9673 12.2658 19.9545C12.3348 19.9417 12.4 19.9137 12.4568 19.8725C12.6009 19.7581 12.7699 19.679 12.9501 19.6416C13.1304 19.6042 13.3168 19.6095 13.4946 19.6572C13.6724 19.7048 13.8366 19.7934 13.974 19.9158C14.1114 20.0383 14.2182 20.1913 14.2859 20.3624C14.3146 20.4264 14.3572 20.4832 14.4106 20.5286C14.464 20.5741 14.5269 20.607 14.5947 20.6251C14.6624 20.6432 14.7334 20.6459 14.8023 20.6331C14.8713 20.6203 14.9365 20.5923 14.9933 20.5511C15.1374 20.4367 15.3064 20.3577 15.4865 20.3204C15.6667 20.2831 15.8531 20.2884 16.0308 20.336C16.2086 20.3836 16.3727 20.4722 16.5101 20.5946C16.6474 20.717 16.7542 20.8699 16.8219 21.041C16.8506 21.105 16.8932 21.1618 16.9467 21.2072C17.0001 21.2527 17.063 21.2856 17.1307 21.3037C17.1985 21.3217 17.2694 21.3245 17.3384 21.3117C17.4073 21.2989 17.4725 21.2708 17.5293 21.2296C17.6735 21.1152 17.8424 21.0361 18.0226 20.9987C18.2029 20.9613 18.3894 20.9667 18.5672 21.0143C18.7449 21.0619 18.9091 21.1505 19.0465 21.273C19.1839 21.3955 19.2908 21.5484 19.3584 21.7196C19.3871 21.7836 19.4297 21.8403 19.4832 21.8858C19.5366 21.9312 19.5994 21.9642 19.6672 21.9822C19.735 22.0003 19.8059 22.003 19.8749 21.9902C19.9438 21.9774 20.009 21.9494 20.0658 21.9082C20.21 21.7939 20.3789 21.7149 20.5591 21.6776C20.7393 21.6403 20.9258 21.6457 21.1035 21.6934C21.2812 21.741 21.4453 21.8296 21.5827 21.9521C21.72 22.0746 21.8268 22.2275 21.8945 22.3986C21.9232 22.4626 21.9658 22.5194 22.0192 22.5648C22.0726 22.6103 22.1355 22.6432 22.2032 22.6613C22.271 22.6794 22.3419 22.6821 22.4109 22.6693C22.4798 22.6565 22.5451 22.6284 22.6018 22.5872C22.7482 22.4762 22.9178 22.3997 23.0979 22.3633C23.278 22.327 23.464 22.3318 23.642 22.3774ZM24.9374 12.5851L24.9351 12.5818L22.1057 7.90158C22.0411 7.79453 21.9365 7.71754 21.8151 7.68756C21.6937 7.65758 21.5653 7.67706 21.4583 7.74172C21.3512 7.80638 21.2742 7.91092 21.2443 8.03234C21.2143 8.15376 21.2338 8.28211 21.2984 8.38917L23.9882 12.8402C23.6109 13.5984 22.6089 16.0887 22.3203 21.3753C22.0563 21.0946 21.72 20.8921 21.3484 20.7901C20.8868 20.6682 20.3976 20.706 19.9601 20.8972C19.6779 20.5116 19.2725 20.2339 18.811 20.1102C18.3494 19.9864 17.8595 20.024 17.4222 20.2167C17.14 19.8313 16.7346 19.5538 16.2732 19.4302C15.8118 19.3065 15.3219 19.3441 14.8848 19.5367C14.6025 19.1512 14.197 18.8737 13.7355 18.7501C13.2739 18.6266 12.784 18.6643 12.3469 18.8572C12.0647 18.4716 11.6593 18.1939 11.1977 18.0702C10.7361 17.9466 10.2461 17.9843 9.80897 18.1772C9.52742 17.791 9.12228 17.5126 8.66075 17.3882C8.19922 17.2638 7.70904 17.301 7.27153 17.4935C6.98804 17.1093 6.5831 16.8321 6.12235 16.7069C5.77955 16.6157 5.41919 16.6129 5.07503 16.6989C6.81978 11.8419 12.3936 -1.22019 21.0235 1.25689C28.9881 3.54582 28.5439 12.114 27.8691 16.0977C27.8563 16.0977 27.8445 16.0939 27.8313 16.0939C27.5741 16.0972 27.3191 16.1431 27.0769 16.2297L24.9374 12.5851ZM27.8313 19.8664C27.5516 19.8664 27.278 19.7834 27.0454 19.6279C26.8128 19.4725 26.6314 19.2516 26.5244 18.9931C26.4173 18.7346 26.3893 18.4501 26.4439 18.1757C26.4984 17.9013 26.6332 17.6492 26.831 17.4514C27.0289 17.2535 27.2809 17.1188 27.5554 17.0642C27.8298 17.0096 28.1142 17.0376 28.3727 17.1447C28.6312 17.2518 28.8522 17.4331 29.0076 17.6657C29.163 17.8984 29.246 18.1719 29.246 18.4517C29.246 18.8269 29.097 19.1867 28.8317 19.452C28.5664 19.7173 28.2065 19.8664 27.8313 19.8664Z" fill="black"/>
</svg>
