<svg width="29" height="18" viewBox="0 0 29 18" fill="none" xmlns="http://www.w3.org/2000/svg">
<path d="M14.4994 0.916826C6.56343 0.916826 0 6.51726 0 9.37585C0 12.089 6.86045 17.8344 14.4994 17.8344C22.4354 17.8344 29 12.2344 29 9.37585C29.0004 6.66225 22.1395 0.916826 14.4994 0.916826ZM14.4994 16.0766C7.32834 16.0766 1.75627 10.7309 1.75627 9.37528C1.75627 7.80508 7.18698 2.674 14.4994 2.674C21.6705 2.674 27.2426 8.01871 27.2426 9.37528C27.2426 10.7762 21.8216 16.0766 14.4994 16.0766Z" fill="white"/>
<path d="M14.3531 3.40714C11.0766 3.40714 8.42114 6.06265 8.42114 9.33909C8.42114 12.6155 11.0766 15.271 14.3531 15.271C17.6291 15.271 20.285 12.6155 20.285 9.33909C20.285 6.06265 17.6291 3.40714 14.3531 3.40714ZM12.6681 9.70567C11.5357 9.70567 10.618 8.78784 10.618 7.65555C10.618 6.52322 11.5353 5.60452 12.6681 5.60452C13.8008 5.60452 14.7191 6.52235 14.7191 7.65555C14.7191 8.78699 13.8013 9.70567 12.6681 9.70567Z" fill="white"/>
</svg>
