<svg width="22" height="22" viewBox="0 0 22 22" fill="none" xmlns="http://www.w3.org/2000/svg">
<g clip-path="url(#clip0_5_88)">
<path d="M17.0409 21.8492L4.97952 21.8607C2.32601 21.8631 0.153148 19.6945 0.150132 17.0409L0.138674 4.97955C0.136262 2.32604 2.3049 0.153179 4.95841 0.150164L17.0198 0.138705C19.6733 0.136293 21.8462 2.30493 21.8492 4.95844L21.8607 17.0198C21.8637 19.674 19.6944 21.8468 17.0409 21.8492Z" fill="url(#paint0_radial_5_88)"/>
<path d="M17.0409 21.8492L4.97952 21.8607C2.32601 21.8631 0.153148 19.6945 0.150132 17.0409L0.138674 4.97955C0.136262 2.32604 2.3049 0.153179 4.95841 0.150164L17.0198 0.138705C19.6733 0.136293 21.8462 2.30493 21.8492 4.95844L21.8607 17.0198C21.8637 19.674 19.6944 21.8468 17.0409 21.8492Z" fill="url(#paint1_radial_5_88)"/>
<path d="M11.0001 15.2215C8.67281 15.2215 6.77856 13.3279 6.77856 11C6.77856 8.67215 8.67281 6.77851 11.0001 6.77851C13.3273 6.77851 15.2215 8.67215 15.2215 11C15.2215 13.3279 13.3273 15.2215 11.0001 15.2215ZM11.0001 7.98465C9.33739 7.98465 7.9847 9.33734 7.9847 11C7.9847 12.6627 9.33739 14.0154 11.0001 14.0154C12.6627 14.0154 14.0154 12.6627 14.0154 11C14.0154 9.33734 12.6627 7.98465 11.0001 7.98465Z" fill="white"/>
<path d="M15.523 7.38158C16.0226 7.38158 16.4276 6.97657 16.4276 6.47697C16.4276 5.97737 16.0226 5.57237 15.523 5.57237C15.0234 5.57237 14.6184 5.97737 14.6184 6.47697C14.6184 6.97657 15.0234 7.38158 15.523 7.38158Z" fill="white"/>
<path d="M14.6185 18.8399H7.38165C5.0544 18.8399 3.16016 16.9463 3.16016 14.6184V7.38158C3.16016 5.05373 5.0544 3.16009 7.38165 3.16009H14.6185C16.9457 3.16009 18.84 5.05373 18.84 7.38158V14.6184C18.84 16.9463 16.9457 18.8399 14.6185 18.8399ZM7.38165 4.36623C5.71898 4.36623 4.3663 5.71892 4.3663 7.38158V14.6184C4.3663 16.2811 5.71898 17.6338 7.38165 17.6338H14.6185C16.2812 17.6338 17.6338 16.2811 17.6338 14.6184V7.38158C17.6338 5.71892 16.2812 4.36623 14.6185 4.36623H7.38165Z" fill="white"/>
</g>
<defs>
<radialGradient id="paint0_radial_5_88" cx="0" cy="0" r="1" gradientUnits="userSpaceOnUse" gradientTransform="translate(8.21378 21.8764) scale(27.0772 27.0772)">
<stop stop-color="#FFDD55"/>
<stop offset="0.328" stop-color="#FF543F"/>
<stop offset="0.348" stop-color="#FC5245"/>
<stop offset="0.504" stop-color="#E64771"/>
<stop offset="0.643" stop-color="#D53E91"/>
<stop offset="0.761" stop-color="#CC39A4"/>
<stop offset="0.841" stop-color="#C837AB"/>
</radialGradient>
<radialGradient id="paint1_radial_5_88" cx="0" cy="0" r="1" gradientUnits="userSpaceOnUse" gradientTransform="translate(3.63407 -0.132494) scale(17.9793 11.9796)">
<stop stop-color="#4168C9"/>
<stop offset="0.999" stop-color="#4168C9" stop-opacity="0"/>
</radialGradient>
<clipPath id="clip0_5_88">
<rect width="22" height="22" fill="white"/>
</clipPath>
</defs>
</svg>
