<svg width="119" height="45" viewBox="0 0 119 45" fill="none" xmlns="http://www.w3.org/2000/svg">
<g clip-path="url(#clip0_1_29)">
<path d="M23.075 -0.502659H13.0752H0.1604V12.2568V18.8883V31.6478V45.5027H13.0752V31.6478H23.0435H35.3316V18.8883V12.2568V-0.502659H23.075ZM23.075 18.8883H13.0752V12.2568H23.0435V18.8883H23.075Z" fill="white"/>
<path d="M108.433 -0.502659L101.254 14.8916L94.0756 -0.502659H83.6685V45.4731H94.0756V15.8686L101.254 31.5589L108.433 15.8686V45.4731H118.84V-0.502659H108.433Z" fill="white"/>
<path d="M65.8946 10.3622C66.4902 10.8654 66.6469 11.6647 66.3021 12.3457C62.5091 19.7171 56.5532 25.9045 49.2181 30.1971C47.9642 30.878 46.6476 31.4701 45.1116 31.4701C41.1305 31.4701 37.9019 28.3025 38.1527 24.4539C38.3721 21.227 41.0992 18.5922 44.4847 18.3258C47.9955 18.0298 51.0048 20.1908 51.8513 23.2106C51.9453 23.5954 52.4155 23.6841 52.7289 23.4177C55.2053 21.4046 61.6315 14.3884 63.9824 9.68128C64.1392 9.38522 64.5467 9.29647 64.8289 9.50364C65.1736 9.77003 65.5498 10.0661 65.8946 10.3622Z" fill="white"/>
<path d="M72.5089 11.576C76.0406 11.576 78.9036 8.87204 78.9036 5.53665C78.9036 2.20124 76.0406 -0.502659 72.5089 -0.502659C68.9771 -0.502659 66.1141 2.20124 66.1141 5.53665C66.1141 8.87204 68.9771 11.576 72.5089 11.576Z" fill="white"/>
<path d="M56.6787 12.6713C56.8983 12.5529 57.1803 12.6121 57.3057 12.8193C59.2492 15.8686 63.7318 20.7237 65.5813 22.1447C65.8635 22.352 66.2395 22.2928 66.365 21.9968C67.5248 19.1844 70.5028 17.2008 73.9509 17.4673C77.6185 17.7337 80.5965 20.5461 80.8786 24.0099C81.0666 26.2006 80.1576 28.2137 78.6529 29.6347C77.305 30.9077 75.4243 31.6773 73.3867 31.6773C72.0074 31.6773 70.7222 31.3222 69.5937 30.7004C63.575 27.0294 58.591 22.056 55.1114 16.1351C54.4532 15.0397 54.892 13.6186 56.0518 13.0266L56.6787 12.6713Z" fill="white"/>
<path d="M49.4062 13.1154C53.388 13.1154 56.6159 10.0668 56.6159 6.30642C56.6159 2.54586 53.388 -0.502659 49.4062 -0.502659C45.4243 -0.502659 42.1964 2.54586 42.1964 6.30642C42.1964 10.0668 45.4243 13.1154 49.4062 13.1154Z" fill="white"/>
</g>
<defs>
<clipPath id="clip0_1_29">
<rect width="119" height="45" fill="white"/>
</clipPath>
</defs>
</svg>
