<svg width="119" height="47" viewBox="0 0 119 47" fill="none" xmlns="http://www.w3.org/2000/svg">
<g clip-path="url(#clip0_1_29)">
<path d="M23.075 0.497341H13.0752H0.1604V13.2568V19.8883V32.6478V46.5027H13.0752V32.6478H23.0435H35.3316V19.8883V13.2568V0.497341H23.075ZM23.075 19.8883H13.0752V13.2568H23.0435V19.8883H23.075Z" fill="black"/>
<path d="M108.433 0.497341L101.254 15.8916L94.0756 0.497341H83.6685V46.4731H94.0756V16.8686L101.254 32.5589L108.433 16.8686V46.4731H118.84V0.497341H108.433Z" fill="black"/>
<path d="M65.8946 11.3622C66.4902 11.8654 66.6469 12.6647 66.3021 13.3457C62.5091 20.7171 56.5532 26.9045 49.2181 31.1971C47.9642 31.878 46.6476 32.4701 45.1116 32.4701C41.1305 32.4701 37.9019 29.3025 38.1527 25.4539C38.3721 22.227 41.0992 19.5922 44.4847 19.3258C47.9955 19.0298 51.0048 21.1908 51.8513 24.2106C51.9453 24.5954 52.4155 24.6841 52.7289 24.4177C55.2053 22.4046 61.6315 15.3884 63.9824 10.6813C64.1392 10.3852 64.5467 10.2965 64.8289 10.5036C65.1736 10.77 65.5498 11.0661 65.8946 11.3622Z" fill="black"/>
<path d="M72.5089 12.576C76.0406 12.576 78.9036 9.87204 78.9036 6.53665C78.9036 3.20124 76.0406 0.497341 72.5089 0.497341C68.9771 0.497341 66.1141 3.20124 66.1141 6.53665C66.1141 9.87204 68.9771 12.576 72.5089 12.576Z" fill="black"/>
<path d="M56.6787 13.6713C56.8983 13.5529 57.1803 13.6121 57.3057 13.8193C59.2492 16.8686 63.7318 21.7237 65.5813 23.1447C65.8635 23.352 66.2395 23.2928 66.365 22.9968C67.5248 20.1844 70.5028 18.2008 73.9509 18.4673C77.6185 18.7337 80.5965 21.5461 80.8786 25.0099C81.0666 27.2006 80.1576 29.2137 78.6529 30.6347C77.305 31.9077 75.4243 32.6773 73.3867 32.6773C72.0074 32.6773 70.7222 32.3222 69.5937 31.7004C63.575 28.0294 58.591 23.056 55.1114 17.1351C54.4532 16.0397 54.892 14.6186 56.0518 14.0266L56.6787 13.6713Z" fill="black"/>
<path d="M49.4062 14.1154C53.388 14.1154 56.6159 11.0668 56.6159 7.30642C56.6159 3.54586 53.388 0.497341 49.4062 0.497341C45.4243 0.497341 42.1964 3.54586 42.1964 7.30642C42.1964 11.0668 45.4243 14.1154 49.4062 14.1154Z" fill="black"/>
</g>
<defs>
<clipPath id="clip0_1_29">
<rect width="119" height="47" fill="white"/>
</clipPath>
</defs>
</svg>
