<svg width="22" height="22" viewBox="0 0 22 22" fill="none" xmlns="http://www.w3.org/2000/svg">
<g clip-path="url(#clip0_5_94)">
<path d="M11.0001 0.0873041C8.10587 0.0873041 5.33018 1.23703 3.28366 3.28356C1.23713 5.33009 0.0874023 8.10577 0.0874023 11C0.0874023 13.8942 1.23713 16.6699 3.28366 18.7164C5.33018 20.763 8.10587 21.9127 11.0001 21.9127C13.8943 21.9127 16.67 20.763 18.7165 18.7164C20.7631 16.6699 21.9128 13.8942 21.9128 11C21.9128 8.10577 20.7631 5.33009 18.7165 3.28356C16.67 1.23703 13.8943 0.0873041 11.0001 0.0873041Z" fill="#29B6F6"/>
<path d="M16.429 6.08928L14.3851 16.5251C14.3851 16.5251 14.2972 17.002 13.7058 17.002C13.3915 17.002 13.2294 16.8525 13.2294 16.8525L8.80216 13.1787L6.63599 12.0869L3.85597 11.3476C3.85597 11.3476 3.36108 11.2046 3.36108 10.7954C3.36108 10.4544 3.87016 10.2918 3.87016 10.2918L15.5009 5.67133C15.5009 5.67133 15.8561 5.5431 16.1153 5.54365C16.2746 5.54365 16.4563 5.61185 16.4563 5.81647C16.4563 5.95288 16.429 6.08928 16.429 6.08928Z" fill="white"/>
<path d="M10.4544 14.5494L8.58501 16.3903C8.58501 16.3903 8.50371 16.4531 8.39513 16.4558C8.35748 16.4569 8.3171 16.4509 8.27563 16.4323L8.80163 13.1776L10.4544 14.5494Z" fill="#B0BEC5"/>
<path d="M14.2177 7.83313C14.1255 7.71309 13.9552 7.69127 13.8352 7.78239L6.63501 12.0913C6.63501 12.0913 7.78412 15.3061 7.95927 15.8627C8.13496 16.4198 8.27573 16.4329 8.27573 16.4329L8.80173 13.1782L14.1664 8.21508C14.2864 8.12396 14.3088 7.95317 14.2177 7.83313Z" fill="#CFD8DC"/>
</g>
<defs>
<clipPath id="clip0_5_94">
<rect width="22" height="22" fill="white"/>
</clipPath>
</defs>
</svg>
