<svg width="84" height="84" viewBox="0 0 84 84" fill="none" xmlns="http://www.w3.org/2000/svg">
<path d="M78.5625 31.47H73.275C72.7181 29.8247 72.1359 28.455 71.4666 27.1359L71.5537 27.3244L75.3169 23.6006C76.3013 22.7569 76.92 21.5138 76.92 20.1244C76.92 18.9825 76.5009 17.9363 75.8063 17.1347L75.8119 17.1403L66.8737 8.20219C66.0778 7.51032 65.0344 7.09126 63.8897 7.09126C62.5003 7.09126 61.2544 7.71282 60.4191 8.69438L60.4134 8.7L56.6672 12.4406C55.5366 11.8613 54.1697 11.2791 52.7578 10.7925L52.5272 10.7222L52.5525 5.43469C52.5609 5.32219 52.5666 5.19282 52.5666 5.06063C52.5666 2.65875 50.7103 0.690005 48.3534 0.512817H48.3394H35.6944C33.3206 0.690005 31.4616 2.65875 31.4616 5.06063C31.4616 5.19282 31.4672 5.32219 31.4784 5.45157V5.43469V10.7194C29.8331 11.2763 28.4662 11.8556 27.1472 12.5222L27.3356 12.435L23.6119 8.6775C22.7709 7.6875 21.525 7.06594 20.1356 7.06594C18.9909 7.06594 17.9475 7.48782 17.1459 8.18251L17.1516 8.17688L8.21063 17.1178C7.51875 17.9138 7.09687 18.96 7.09687 20.1019C7.09687 21.4913 7.71844 22.7372 8.7 23.5725L8.70563 23.5781L12.4434 27.3159C11.8613 28.4494 11.2791 29.8219 10.7925 31.2394L10.725 31.47L5.4375 31.4447C5.325 31.4363 5.19563 31.4306 5.06344 31.4306C2.66156 31.4306 0.692813 33.2897 0.515625 35.6466V35.6606V48.3028C0.69 50.6766 2.66156 52.5356 5.06344 52.5356C5.19563 52.5356 5.325 52.53 5.45438 52.5188H5.4375H10.725C11.2819 54.1641 11.8612 55.5338 12.5306 56.8528L12.4462 56.6672L8.69156 60.3797C7.70438 61.2234 7.08281 62.4722 7.08281 63.8644C7.08281 65.0091 7.50187 66.0553 8.19656 66.8569L8.19094 66.8513L17.1319 75.7894C17.8322 76.4813 18.7941 76.9116 19.86 76.9116C19.8797 76.9116 19.8994 76.9116 19.9191 76.9116H19.9163C21.3647 76.875 22.6641 76.2619 23.595 75.2916L23.5978 75.2888L27.3384 71.5481C28.4719 72.1303 29.8444 72.7125 31.2619 73.1991L31.4925 73.2694L31.4672 78.5513C31.4587 78.6638 31.4531 78.7931 31.4531 78.9225C31.4531 81.3244 33.3122 83.2959 35.6691 83.4703H35.6831H48.3281C50.6991 83.2903 52.5553 81.3244 52.5553 78.9225C52.5553 78.7903 52.5497 78.6609 52.5384 78.5316V78.5484V73.2581C54.1838 72.7013 55.5563 72.1191 56.8781 71.4497L56.6897 71.5369L60.405 75.2859C61.3388 76.2534 62.6353 76.8666 64.0725 76.9003H64.0781H64.0837C64.1006 76.9003 64.1203 76.9003 64.1372 76.9003C65.2003 76.9003 66.1622 76.4756 66.8681 75.7894L75.8034 66.8541C76.4897 66.1538 76.9144 65.1919 76.9144 64.1316C76.9144 64.1063 76.9144 64.0838 76.9144 64.0584C76.8806 62.6156 76.2703 61.3247 75.3056 60.3938L75.3028 60.3909L71.5594 56.6447C72.1387 55.5169 72.7181 54.15 73.2075 52.7381L73.2778 52.5047L78.5625 52.53C78.675 52.5384 78.8044 52.5441 78.9337 52.5441C81.3384 52.5441 83.3072 50.685 83.4816 48.3253V48.3113V35.6691C83.3044 33.2953 81.3356 31.4391 78.9309 31.4391C78.7988 31.4391 78.6694 31.4447 78.5428 31.4559H78.5597L78.5625 31.47ZM78.5737 48.3281L71.7787 48.2944C71.7225 48.2944 71.6747 48.3225 71.6212 48.3253C71.0644 48.3928 70.575 48.6488 70.2122 49.0256C70.0575 49.2281 69.9225 49.4559 69.8156 49.7006L69.8072 49.7231C69.7931 49.7625 69.7622 49.7906 69.7509 49.8328C69.0759 52.2066 68.1956 54.2738 67.0959 56.2003L67.1691 56.0625C67.0172 56.3438 66.9272 56.6756 66.9272 57.03C66.9272 57.0328 66.9272 57.0384 66.9272 57.0413C66.9272 57.0863 66.9356 57.12 66.9384 57.1678C66.9553 57.6938 67.1634 58.1663 67.4981 58.5206L67.5234 58.5853L72.3244 63.3919C72.6309 63.6984 72.7097 63.9966 72.8194 63.8869L64.095 72.6984C63.8166 72.6619 63.5719 72.5269 63.3975 72.3328L58.6247 67.515C58.6022 67.4897 58.5628 67.5009 58.5403 67.4784C58.2 67.1634 57.7528 66.9638 57.2578 66.9356H57.2522C57.1959 66.9272 57.1284 66.9216 57.0609 66.9188C56.7094 66.9188 56.3747 67.0088 56.0878 67.1663L56.0991 67.1606C54.3103 68.1787 52.2375 69.0619 50.0634 69.7003L49.8553 69.7538C49.8131 69.765 49.785 69.7959 49.7456 69.81C49.4756 69.9281 49.2422 70.0688 49.0284 70.2291L49.0369 70.2234C48.9384 70.3191 48.8512 70.4231 48.7753 70.5328L48.7697 70.5384C48.6937 70.6312 48.6206 70.7353 48.5588 70.8478L48.5531 70.8591C48.4603 71.0869 48.3872 71.3512 48.3478 71.6297L48.345 71.6494C48.3422 71.6944 48.3169 71.7366 48.3169 71.7816V78.5653C48.3169 78.9872 48.1622 79.2628 48.3169 79.2684L35.9137 79.3331C35.7675 79.1447 35.6775 78.9028 35.6775 78.6413C35.6775 78.6188 35.6775 78.5963 35.6803 78.5738L35.7141 71.7928C35.7141 71.745 35.6916 71.7028 35.6859 71.6578C35.6719 71.5088 35.6437 71.3709 35.6016 71.2388L35.6044 71.2528C35.5706 71.1038 35.5256 70.9716 35.4694 70.845L35.475 70.8591C35.3288 70.6172 35.1684 70.4091 34.9884 70.2206C34.9069 70.1531 34.8141 70.0913 34.7184 70.035L34.7072 70.0294C34.5834 69.945 34.4456 69.8719 34.2966 69.8156L34.2825 69.81C34.2431 69.7959 34.215 69.765 34.1728 69.7538C31.7906 69.0759 29.715 68.1956 27.7828 67.0988L27.9263 67.1719C27.6478 67.02 27.3187 66.93 26.9672 66.93C26.9053 66.9272 26.8547 66.9413 26.7928 66.9441C26.2866 66.9666 25.8309 67.1691 25.485 67.4869C25.4625 67.5094 25.4288 67.4981 25.4063 67.5206L20.6109 72.3159C20.31 72.6169 20.0034 72.7069 20.1103 72.8166L11.2959 64.095C11.3297 63.8138 11.4647 63.5691 11.6616 63.3919L16.4822 58.6247L16.5131 58.5516C16.8366 58.2056 17.0447 57.7472 17.0672 57.2409V57.2353C17.07 57.1763 17.0812 57.1313 17.0812 57.0722C17.0812 57.0694 17.0812 57.0666 17.0812 57.0638C17.0812 56.7094 16.9913 56.3747 16.8337 56.085L16.8394 56.0963C15.8128 54.3075 14.9297 52.2403 14.2997 50.0634L14.2491 49.8609C14.2378 49.8188 14.2041 49.7878 14.19 49.7456C14.0719 49.4813 13.9369 49.2506 13.7794 49.0425L13.785 49.0509C13.6022 48.8794 13.4025 48.7219 13.1888 48.5869L13.1719 48.5784C13.0284 48.5081 12.8653 48.4519 12.6909 48.4181L12.6769 48.4153C12.5953 48.39 12.4941 48.3703 12.39 48.3563H12.3787C12.3225 48.3506 12.2747 48.3225 12.2156 48.3225H5.43187C5.00437 48.3281 4.73437 48.1678 4.72875 48.3169L4.66688 35.9166C4.85531 35.7703 5.09156 35.6803 5.35313 35.6803C5.37844 35.6803 5.40094 35.6803 5.42625 35.6831H5.42344L12.2184 35.7169C12.6459 35.7056 13.0397 35.565 13.3631 35.3344L13.3575 35.34C13.425 35.3006 13.4813 35.2613 13.5375 35.2191L13.5319 35.2219C13.8384 34.9744 14.0691 34.6425 14.1928 34.2628L14.1956 34.2488C14.2041 34.2206 14.235 34.2094 14.2434 34.1784C14.9241 31.7963 15.8044 29.7263 16.9041 27.7941L16.8309 27.9347C16.9828 27.6534 17.0728 27.3216 17.0728 26.9672C17.0728 26.9644 17.0728 26.9644 17.0728 26.9616C17.0756 26.9081 17.0644 26.8688 17.0616 26.8153C17.0419 26.2978 16.8366 25.8309 16.5075 25.4794L16.4794 25.4119L11.6841 20.6166C11.3803 20.3072 11.2847 19.995 11.1891 20.1159L19.9134 11.3016C20.1975 11.3241 20.445 11.4647 20.6109 11.67L20.6138 11.6728L25.3866 16.4906C25.4372 16.5413 25.5159 16.5216 25.5694 16.5666C25.9209 16.9069 26.3991 17.1178 26.9278 17.1178C27.2934 17.1178 27.6338 17.0166 27.9263 16.8422L27.9178 16.8478C29.7066 15.8241 31.7766 14.9438 33.9506 14.3109L34.1531 14.2603C34.1925 14.2491 34.2206 14.2181 34.26 14.2069C34.4203 14.1478 34.5553 14.0747 34.6847 13.9903L34.6763 13.9959C35.1347 13.7428 35.4666 13.3097 35.5791 12.795L35.5819 12.7838C35.6213 12.6628 35.6522 12.5222 35.6663 12.3759V12.3675C35.6691 12.3225 35.6916 12.2831 35.6916 12.2381V5.45438C35.6916 5.02969 35.8491 4.75407 35.6944 4.75126L48.0975 4.68657C48.2437 4.87501 48.3309 5.11407 48.3309 5.37563C48.3309 5.40094 48.3309 5.42344 48.3281 5.44875L48.2944 12.2297C48.2944 12.2747 48.3169 12.3141 48.3197 12.3619C48.3337 12.5166 48.3619 12.66 48.4069 12.7978L48.4041 12.7838C48.6038 13.4419 49.0875 13.9622 49.7091 14.2069L49.7231 14.2125C49.7625 14.2266 49.7934 14.2575 49.8328 14.2688C52.2094 14.9494 54.2766 15.8297 56.2031 16.9266L56.0625 16.8534C56.3578 17.0222 56.7122 17.1234 57.0919 17.1234H57.0947C57.6094 17.1009 58.0706 16.8928 58.4194 16.5666C58.4672 16.5244 58.5403 16.5441 58.5853 16.4991L63.3919 11.7038C63.6872 11.4056 63.9909 11.3184 63.8869 11.2088L72.6984 19.9331C72.6647 20.2144 72.5325 20.4563 72.3356 20.6334L67.5122 25.4063L67.4812 25.4794C67.155 25.8253 66.9469 26.2866 66.9244 26.7956V26.8013C66.9216 26.8575 66.9103 26.9025 66.9103 26.9588C66.9103 26.9616 66.9103 26.9644 66.9103 26.9672C66.9103 27.3216 67.0003 27.6563 67.1578 27.9459L67.1522 27.9347C68.1787 29.7234 69.0619 31.7906 69.6891 33.9647L69.7397 34.1644C69.7481 34.1981 69.7847 34.2122 69.7931 34.2431C69.9225 34.6284 70.1503 34.9547 70.4456 35.1966L70.4484 35.1994C70.5019 35.2416 70.5638 35.2838 70.6256 35.3203L70.6341 35.3259C70.9491 35.5509 71.3428 35.6916 71.7647 35.7028H78.5513C78.9788 35.7 79.2487 35.8631 79.2544 35.7056L79.3134 48.1059C79.1306 48.255 78.8944 48.345 78.6384 48.345C78.6103 48.345 78.585 48.345 78.5569 48.3422H78.5597L78.5737 48.3281ZM42 28.6406C34.6228 28.6406 28.6406 34.6228 28.6406 42C28.6406 49.3772 34.6228 55.3594 42 55.3594C49.3772 55.3594 55.3594 49.3772 55.3594 42C55.3509 34.6256 49.3744 28.6491 42 28.6406ZM42 51.1406C36.9516 51.1406 32.8594 47.0484 32.8594 42C32.8594 36.9516 36.9516 32.8594 42 32.8594C47.0484 32.8594 51.1406 36.9516 51.1406 42C51.135 47.0456 47.0456 51.135 42 51.1406Z" fill="white"/>
</svg>
