<svg width="74" height="80" viewBox="0 0 74 80" fill="none" xmlns="http://www.w3.org/2000/svg">
<path d="M70.75 23.125H65.125V14.6875C65.125 6.92219 58.8278 0.625 51.0625 0.625H22.9375C15.1722 0.625 8.875 6.92219 8.875 14.6875V23.125H3.25C1.6975 23.125 0.4375 24.385 0.4375 25.9375V34.375C0.4375 35.9275 1.6975 37.1875 3.25 37.1875H8.875V45.6813C8.875 49.3853 9.24063 53.0809 9.96625 56.7119L13.1416 72.5912C13.9319 76.5372 17.3941 79.375 21.4159 79.375H52.5813C56.6031 79.375 60.0653 76.5372 60.8556 72.5912L64.0309 56.7119C64.7594 53.0781 65.125 49.3853 65.125 45.6813V37.1875H70.75C72.3025 37.1875 73.5625 35.9275 73.5625 34.375V25.9375C73.5625 24.385 72.3025 23.125 70.75 23.125ZM11.6875 14.6875C11.6875 8.48312 16.7331 3.4375 22.9375 3.4375H51.0625C57.2669 3.4375 62.3125 8.48312 62.3125 14.6875V28.75H59.5V23.125C59.5 20.0172 56.9828 17.5 53.875 17.5H20.125C17.0172 17.5 14.5 20.0172 14.5 23.125V28.75H11.6875V14.6875ZM56.6875 23.125V37.1875C56.6875 38.7372 55.4247 40 53.875 40H20.125C18.5753 40 17.3125 38.7372 17.3125 37.1875V23.125C17.3125 21.5753 18.5753 20.3125 20.125 20.3125H53.875C55.4247 20.3125 56.6875 21.5753 56.6875 23.125ZM3.25 34.375V25.9375H8.875V34.375H3.25ZM62.3125 45.6813C62.3125 49.1912 61.9638 52.7181 61.2747 56.1606L58.0994 72.04C57.5734 74.6612 55.2559 76.5625 52.5841 76.5625H21.4159C18.7441 76.5625 16.4238 74.6612 15.9006 72.04L12.7253 56.1606C12.0363 52.7181 11.6875 49.1912 11.6875 45.6813V31.5625H14.5V37.1875C14.5 40.2953 17.0172 42.8125 20.125 42.8125H53.875C56.9828 42.8125 59.5 40.2953 59.5 37.1875V31.5625H62.3125V45.6813ZM70.75 34.375H65.125V25.9375H70.75V34.375ZM20.125 37.1875H53.875V23.125H20.125V37.1875ZM22.9375 25.9375H51.0625V34.375H22.9375V25.9375Z" fill="#111918"/>
</svg>
