<svg width="90" height="90" viewBox="0 0 90 90" fill="none" xmlns="http://www.w3.org/2000/svg">
<g clip-path="url(#clip0_92_209)">
<path d="M47.3775 58.8868H43.6305C42.8545 58.8868 42.2253 59.5138 42.2253 60.2874C42.2253 61.0609 42.8545 61.688 43.6305 61.688H47.3775C48.1536 61.688 48.7827 61.0609 48.7827 60.2874C48.7825 59.5138 48.1534 58.8868 47.3775 58.8868Z" fill="black"/>
<path d="M47.3775 64.4888H43.6305C42.8545 64.4888 42.2253 65.1159 42.2253 65.8894C42.2253 66.663 42.8545 67.29 43.6305 67.29H47.3775C48.1536 67.29 48.7827 66.663 48.7827 65.8894C48.7825 65.1159 48.1534 64.4888 47.3775 64.4888Z" fill="black"/>
<path d="M47.3775 70.0909H43.6305C42.8545 70.0909 42.2253 70.718 42.2253 71.4915C42.2253 72.2651 42.8545 72.8921 43.6305 72.8921H47.3775C48.1536 72.8921 48.7827 72.2651 48.7827 71.4915C48.7827 70.718 48.1534 70.0909 47.3775 70.0909Z" fill="black"/>
<path d="M88.1266 81.4238V71.4915C88.1266 62.0357 84.8191 53.2574 78.8134 46.7737C72.6638 40.1345 64.1611 36.4783 54.872 36.4783C35.7946 36.4783 20.2206 51.715 19.7549 70.6205L1.40142 79.7672C0.393141 80.2697 -0.154769 81.3509 0.0384142 82.458C0.231422 83.565 1.11296 84.3988 2.23252 84.5326L45.3372 89.6883C45.3926 89.6948 45.4487 89.6981 45.5048 89.6981H87.3052C88.7912 89.6981 90.0003 88.493 90.0003 87.0118V83.9813C90.0001 82.7857 89.2119 81.771 88.1266 81.4238ZM54.872 39.2794C62.1815 39.2794 68.7335 41.7359 73.8704 45.9511C70.2576 44.6307 66.3768 43.9477 62.366 43.9477C53.6642 43.9477 45.3149 47.1428 38.8565 52.9446C32.974 58.229 29.081 65.2827 27.7502 72.9858L22.5664 70.6013C23.0419 53.2497 37.3511 39.2794 54.872 39.2794ZM87.1899 86.8974H45.5886L3.48355 81.8613L21.1735 73.0452L34.2222 79.0482C36.2738 79.992 38.3905 80.8072 40.5521 81.4916C41.46 81.7791 42.3876 81.1086 42.3876 80.1591V80.1574C42.3876 79.5501 41.9949 79.0107 41.4143 78.8269C39.3607 78.1767 37.3494 77.4016 35.4 76.5048L30.3999 74.2046C32.7272 58.4706 46.2636 46.7488 62.366 46.7488C68.607 46.7488 74.4957 48.5464 79.4094 51.9466C83.1492 57.2948 85.3164 64.0193 85.3164 71.4915V73.8258H75.8678C74.8778 73.8258 74.0754 74.6256 74.0754 75.6123V81.2954H65.6445V75.6123C65.6445 74.6256 64.8421 73.8258 63.8521 73.8258H53.3857C52.3957 73.8258 51.5933 74.6256 51.5933 75.6123V80.98C49.9928 80.8034 48.3992 80.5521 46.8198 80.2292C45.9526 80.0521 45.1428 80.7189 45.1428 81.6009C45.1428 82.2671 45.6141 82.8403 46.2689 82.9738C49.8963 83.7139 53.5961 84.0962 57.2821 84.0962H87.1899V86.8974ZM85.3164 76.6268V81.2952H76.8858V76.6268H85.3164ZM62.8343 76.6268V81.2952H57.2821C56.323 81.2952 55.3631 81.2673 54.4037 81.2135V76.6266H62.8343V76.6268Z" fill="black"/>
</g>
<rect x="0.5" y="0.5" width="89" height="89" stroke="#0D0932" stroke-opacity="0.05"/>
<defs>
<clipPath id="clip0_92_209">
<rect width="90" height="90" fill="white"/>
</clipPath>
</defs>
</svg>
